{
	"asset":{
		"generator":"Khronos glTF Blender I/O v4.3.47",
		"version":"2.0"
	},
	"extensionsUsed":[
		"KHR_materials_emissive_strength",
		"KHR_materials_unlit",
		"KHR_materials_sheen"
	],
	"scene":0,
	"scenes":[
		{
			"name":"Scene",
			"nodes":[
				0,
				1,
				2,
				3,
				4,
				5,
				6,
				7,
				8,
				9,
				10,
				11,
				12,
				13,
				14,
				15,
				16,
				17,
				18,
				19,
				20,
				21,
				22
			]
		}
	],
	"nodes":[
		{
			"mesh":0,
			"name":"Cube.004",
			"rotation":[
				-0.8459331393241882,
				-0.21325117349624634,
				0.30710873007774353,
				0.3802700638771057
			],
			"scale":[
				0.7218947410583496,
				0.7218946814537048,
				0.7218947410583496
			],
			"translation":[
				3.176939010620117,
				8.186042785644531,
				5.863759994506836
			]
		},
		{
			"mesh":1,
			"name":"Cube.005",
			"rotation":[
				-0.04908627271652222,
				0,
				0,
				0.9987945556640625
			],
			"scale":[
				0.7218946814537048,
				0.7218946814537048,
				0.7218946814537048
			],
			"translation":[
				13.51598834991455,
				7.823808670043945,
				-1.4123916625976562
			]
		},
		{
			"mesh":2,
			"name":"Cube.006",
			"rotation":[
				0.918865978717804,
				0.017990464344620705,
				-0.37345436215400696,
				0.12606945633888245
			],
			"scale":[
				0.7218947410583496,
				0.7218948006629944,
				0.7218947410583496
			],
			"translation":[
				-4.613064765930176,
				1.2226872444152832,
				-6.627875328063965
			]
		},
		{
			"mesh":3,
			"name":"Cube.007",
			"rotation":[
				-0.10250826179981232,
				-0.08921203762292862,
				0.3151797354221344,
				0.9392523765563965
			],
			"scale":[
				0.7218946218490601,
				0.7218946218490601,
				0.7218946218490601
			],
			"translation":[
				-15.030876159667969,
				9.676003456115723,
				5.083346366882324
			]
		},
		{
			"mesh":4,
			"name":"Cube.008",
			"rotation":[
				-0.41419222950935364,
				-0.23657143115997314,
				-0.23410764336585999,
				0.8471554517745972
			],
			"scale":[
				0.7218947410583496,
				0.7218946814537048,
				0.7218947410583496
			],
			"translation":[
				11.007271766662598,
				6.720983505249023,
				-6.882646083831787
			]
		},
		{
			"mesh":5,
			"name":"Cube.009",
			"rotation":[
				-0.9001419544219971,
				-0.30918920040130615,
				-0.007205110974609852,
				0.3067484498023987
			],
			"scale":[
				0.7218947410583496,
				0.7218948006629944,
				0.7218948006629944
			],
			"translation":[
				0.8176493644714355,
				7.617566108703613,
				0.7727184295654297
			]
		},
		{
			"mesh":6,
			"name":"Cube.010",
			"rotation":[
				0.7629668116569519,
				-0.1230386421084404,
				-0.5805572867393494,
				0.2563130855560303
			],
			"scale":[
				0.7218947410583496,
				0.7218946814537048,
				0.7218947410583496
			],
			"translation":[
				-8.13658332824707,
				8.332550048828125,
				-3.1113121509552
			]
		},
		{
			"mesh":7,
			"name":"Cube.011",
			"rotation":[
				0.8268650770187378,
				0.17432665824890137,
				-0.4357646405696869,
				0.30986061692237854
			],
			"scale":[
				0.7218947410583496,
				0.7218948006629944,
				0.7218947410583496
			],
			"translation":[
				-11.534859657287598,
				4.102747917175293,
				-1.572279930114746
			]
		},
		{
			"mesh":8,
			"name":"Cube.012",
			"rotation":[
				0.4802014231681824,
				-0.20255251228809357,
				-0.1594659835100174,
				0.838421106338501
			],
			"scale":[
				0.7218946814537048,
				0.7218946814537048,
				0.7218947410583496
			],
			"translation":[
				-10.557754516601562,
				6.20499849319458,
				8.225564956665039
			]
		},
		{
			"mesh":9,
			"name":"Cube.013",
			"rotation":[
				-0.8459331393241882,
				-0.21325117349624634,
				0.30710873007774353,
				0.3802700638771057
			],
			"scale":[
				0.7218947410583496,
				0.7218946814537048,
				0.7218947410583496
			],
			"translation":[
				11.65876579284668,
				10.69301700592041,
				-0.05882120132446289
			]
		},
		{
			"mesh":10,
			"name":"Cube.015",
			"rotation":[
				0.9242172837257385,
				0.21154744923114777,
				-0.21768727898597717,
				0.2316950559616089
			],
			"scale":[
				0.7218947410583496,
				0.7218947410583496,
				0.7218947410583496
			],
			"translation":[
				10.084282875061035,
				2.8639235496520996,
				-5.3354973793029785
			]
		},
		{
			"mesh":11,
			"name":"Cube.016",
			"rotation":[
				0.7569182515144348,
				-0.08718310296535492,
				-0.08236479759216309,
				0.6424095034599304
			],
			"scale":[
				0.7218947410583496,
				0.7218947410583496,
				0.7218947410583496
			],
			"translation":[
				6.967527866363525,
				9.85689926147461,
				5.057730674743652
			]
		},
		{
			"mesh":12,
			"name":"Text",
			"rotation":[
				0,
				-0.8161897659301758,
				0.5777839422225952,
				2.1336360589430114e-07
			],
			"scale":[
				2.4220521450042725,
				2.4220521450042725,
				2.4220521450042725
			],
			"translation":[
				14.567380905151367,
				0.4307747483253479,
				9.6172456741333
			]
		},
		{
			"mesh":13,
			"name":"Cube.017",
			"rotation":[
				-0.8459331393241882,
				-0.21325117349624634,
				0.30710873007774353,
				0.3802700638771057
			],
			"scale":[
				0.7218947410583496,
				0.7218946814537048,
				0.7218947410583496
			],
			"translation":[
				9.444297790527344,
				8.186042785644531,
				6.866537570953369
			]
		},
		{
			"mesh":14,
			"name":"Cube.018",
			"rotation":[
				-0.5678150653839111,
				-0.23592984676361084,
				0.12436904013156891,
				0.7787525653839111
			],
			"scale":[
				0.7218946218490601,
				0.7218947410583496,
				0.7218946814537048
			],
			"translation":[
				-0.7506937980651855,
				8.628170013427734,
				6.856578350067139
			]
		},
		{
			"mesh":15,
			"name":"Cube.019",
			"rotation":[
				0.7569182515144348,
				-0.08718310296535492,
				-0.08236479759216309,
				0.6424095034599304
			],
			"scale":[
				0.7218947410583496,
				0.7218947410583496,
				0.7218947410583496
			],
			"translation":[
				13.234886169433594,
				9.85689926147461,
				6.0605082511901855
			]
		},
		{
			"mesh":16,
			"name":"Cube.014",
			"rotation":[
				-0.9001419544219971,
				-0.30918920040130615,
				-0.007205110974609852,
				0.3067484498023987
			],
			"scale":[
				0.7218947410583496,
				0.7218948006629944,
				0.7218948006629944
			],
			"translation":[
				-7.2672438621521,
				7.617566108703613,
				4.157092094421387
			]
		},
		{
			"mesh":17,
			"name":"Cube.020",
			"rotation":[
				0.918865978717804,
				0.017990464344620705,
				-0.37345436215400696,
				0.12606945633888245
			],
			"scale":[
				0.7218947410583496,
				0.7218948006629944,
				0.7218947410583496
			],
			"translation":[
				7.111275672912598,
				6.977715492248535,
				-2.1317176818847656
			]
		},
		{
			"mesh":18,
			"name":"Plane",
			"scale":[
				4.9564971923828125,
				4.9564971923828125,
				4.9564971923828125
			]
		},
		{
			"mesh":19,
			"name":"Cube.003",
			"rotation":[
				-0.5432122349739075,
				-0.255099356174469,
				-0.008552082814276218,
				0.7998573780059814
			],
			"translation":[
				-1.184075951576233,
				3.530456304550171,
				-7.7805962562561035
			]
		},
		{
			"mesh":20,
			"name":"Cylinder.003",
			"rotation":[
				0.8612388968467712,
				-0.3599889576435089,
				0.07487164437770844,
				0.35081303119659424
			],
			"scale":[
				0.12608174979686737,
				1.6184624433517456,
				0.12608174979686737
			],
			"translation":[
				1.0809335708618164,
				3.95578932762146,
				-8.689798355102539
			]
		},
		{
			"mesh":21,
			"name":"Cylinder.004",
			"rotation":[
				0.8612388968467712,
				-0.3599889874458313,
				0.07487164437770844,
				0.3508130609989166
			],
			"scale":[
				0.3482498824596405,
				1.0478248596191406,
				0.3482498824596405
			],
			"translation":[
				1.8356850147247314,
				4.510881423950195,
				-9.307376861572266
			]
		},
		{
			"mesh":22,
			"name":"Torus.001",
			"rotation":[
				0.360925555229187,
				-0.3074928820133209,
				-0.20160840451717377,
				0.8570501804351807
			],
			"translation":[
				-0.6175503730773926,
				2.706615924835205,
				-7.300007343292236
			]
		}
	],
	"materials":[
		{
			"doubleSided":true,
			"name":"Material.002",
			"pbrMetallicRoughness":{
				"baseColorFactor":[
					0,
					0.8003931045532227,
					0.007432563230395317,
					1
				],
				"metallicFactor":0,
				"roughnessFactor":0.5
			}
		},
		{
			"doubleSided":true,
			"name":"Material.001",
			"pbrMetallicRoughness":{
				"baseColorFactor":[
					0.009830677881836891,
					0,
					0.8010168075561523,
					1
				],
				"metallicFactor":0,
				"roughnessFactor":0.5
			}
		},
		{
			"doubleSided":true,
			"name":"Material.003",
			"pbrMetallicRoughness":{
				"baseColorFactor":[
					0.8005045056343079,
					0,
					0.0074159931391477585,
					1
				],
				"metallicFactor":0,
				"roughnessFactor":0.5
			}
		},
		{
			"doubleSided":true,
			"emissiveFactor":[
				1,
				1,
				1
			],
			"extensions":{
				"KHR_materials_emissive_strength":{
					"emissiveStrength":23.69999885559082
				}
			},
			"name":"Material",
			"pbrMetallicRoughness":{
				"baseColorFactor":[
					0.7895450592041016,
					0.8008836507797241,
					0.7430803775787354,
					1
				],
				"metallicFactor":0
			}
		},
		{
			"doubleSided":true,
			"extensions":{
				"KHR_materials_unlit":{}
			},
			"name":"Synthetic turf",
			"pbrMetallicRoughness":{
				"baseColorTexture":{
					"index":0,
					"texCoord":1
				},
				"metallicFactor":0,
				"roughnessFactor":0.9
			}
		},
		{
			"doubleSided":true,
			"extensions":{
				"KHR_materials_sheen":{
					"sheenColorFactor":[
						1.0,
						1.0,
						1.0
					]
				}
			},
			"name":"Material.004",
			"pbrMetallicRoughness":{
				"baseColorFactor":[
					0,
					0.8003931045532227,
					0.007432563230395317,
					1
				],
				"metallicFactor":0
			}
		},
		{
			"doubleSided":true,
			"name":"Material.005",
			"pbrMetallicRoughness":{
				"baseColorFactor":[
					0.009830677881836891,
					0,
					0.8010168075561523,
					1
				],
				"metallicFactor":0,
				"roughnessFactor":0.5
			}
		},
		{
			"doubleSided":true,
			"name":"Material.006",
			"pbrMetallicRoughness":{
				"baseColorFactor":[
					0.8005045056343079,
					0,
					0.0074159931391477585,
					1
				],
				"metallicFactor":0,
				"roughnessFactor":0.5
			}
		},
		{
			"doubleSided":true,
			"emissiveFactor":[
				1,
				1,
				1
			],
			"extensions":{
				"KHR_materials_emissive_strength":{
					"emissiveStrength":8.999999046325684
				}
			},
			"name":"Material.007",
			"pbrMetallicRoughness":{
				"baseColorFactor":[
					0.6408591270446777,
					0.6408591270446777,
					0.6408591270446777,
					1
				],
				"metallicFactor":0,
				"roughnessFactor":0
			}
		},
		{
			"doubleSided":true,
			"name":"Material.008",
			"pbrMetallicRoughness":{
				"baseColorFactor":[
					0.15329277515411377,
					0.06812869757413864,
					0.03323023393750191,
					1
				],
				"metallicFactor":0
			}
		},
		{
			"doubleSided":true,
			"emissiveFactor":[
				0.8400483131408691,
				1,
				0.9685996770858765
			],
			"extensions":{
				"KHR_materials_emissive_strength":{
					"emissiveStrength":4.799999713897705
				}
			},
			"name":"Material.009",
			"pbrMetallicRoughness":{
				"baseColorFactor":[
					0.6408591270446777,
					0.6408591270446777,
					0.6408591270446777,
					1
				],
				"metallicFactor":0,
				"roughnessFactor":0
			}
		}
	],
	"meshes":[
		{
			"name":"Cube.004",
			"primitives":[
				{
					"attributes":{
						"POSITION":0,
						"NORMAL":1,
						"TEXCOORD_0":2
					},
					"indices":3,
					"material":0
				}
			]
		},
		{
			"name":"Cube.005",
			"primitives":[
				{
					"attributes":{
						"POSITION":4,
						"NORMAL":5,
						"TEXCOORD_0":6
					},
					"indices":3,
					"material":1
				}
			]
		},
		{
			"name":"Cube.006",
			"primitives":[
				{
					"attributes":{
						"POSITION":7,
						"NORMAL":8,
						"TEXCOORD_0":9
					},
					"indices":3,
					"material":2
				}
			]
		},
		{
			"name":"Cube.007",
			"primitives":[
				{
					"attributes":{
						"POSITION":10,
						"NORMAL":11,
						"TEXCOORD_0":12
					},
					"indices":3,
					"material":1
				}
			]
		},
		{
			"name":"Cube.008",
			"primitives":[
				{
					"attributes":{
						"POSITION":13,
						"NORMAL":14,
						"TEXCOORD_0":15
					},
					"indices":3,
					"material":0
				}
			]
		},
		{
			"name":"Cube.009",
			"primitives":[
				{
					"attributes":{
						"POSITION":16,
						"NORMAL":17,
						"TEXCOORD_0":18
					},
					"indices":3,
					"material":2
				}
			]
		},
		{
			"name":"Cube.010",
			"primitives":[
				{
					"attributes":{
						"POSITION":19,
						"NORMAL":20,
						"TEXCOORD_0":21
					},
					"indices":3,
					"material":0
				}
			]
		},
		{
			"name":"Cube.011",
			"primitives":[
				{
					"attributes":{
						"POSITION":22,
						"NORMAL":23,
						"TEXCOORD_0":24
					},
					"indices":3,
					"material":2
				}
			]
		},
		{
			"name":"Cube.012",
			"primitives":[
				{
					"attributes":{
						"POSITION":25,
						"NORMAL":26,
						"TEXCOORD_0":27
					},
					"indices":3,
					"material":1
				}
			]
		},
		{
			"name":"Cube.013",
			"primitives":[
				{
					"attributes":{
						"POSITION":28,
						"NORMAL":29,
						"TEXCOORD_0":30
					},
					"indices":3,
					"material":0
				}
			]
		},
		{
			"name":"Cube.015",
			"primitives":[
				{
					"attributes":{
						"POSITION":31,
						"NORMAL":32,
						"TEXCOORD_0":33
					},
					"indices":3,
					"material":0
				}
			]
		},
		{
			"name":"Cube.016",
			"primitives":[
				{
					"attributes":{
						"POSITION":34,
						"NORMAL":35,
						"TEXCOORD_0":36
					},
					"indices":3,
					"material":2
				}
			]
		},
		{
			"name":"Text.002",
			"primitives":[
				{
					"attributes":{
						"POSITION":37,
						"NORMAL":38
					},
					"indices":39,
					"material":3
				}
			]
		},
		{
			"name":"Cube.017",
			"primitives":[
				{
					"attributes":{
						"POSITION":40,
						"NORMAL":41,
						"TEXCOORD_0":42
					},
					"indices":3,
					"material":0
				}
			]
		},
		{
			"name":"Cube.018",
			"primitives":[
				{
					"attributes":{
						"POSITION":43,
						"NORMAL":44,
						"TEXCOORD_0":45
					},
					"indices":3,
					"material":1
				}
			]
		},
		{
			"name":"Cube.019",
			"primitives":[
				{
					"attributes":{
						"POSITION":46,
						"NORMAL":47,
						"TEXCOORD_0":48
					},
					"indices":3,
					"material":2
				}
			]
		},
		{
			"name":"Cube.020",
			"primitives":[
				{
					"attributes":{
						"POSITION":49,
						"NORMAL":50,
						"TEXCOORD_0":51
					},
					"indices":3,
					"material":2
				}
			]
		},
		{
			"name":"Cube.021",
			"primitives":[
				{
					"attributes":{
						"POSITION":52,
						"NORMAL":53,
						"TEXCOORD_0":54
					},
					"indices":3,
					"material":2
				}
			]
		},
		{
			"name":"Plane",
			"primitives":[
				{
					"attributes":{
						"POSITION":55,
						"NORMAL":56,
						"TEXCOORD_0":57,
						"TEXCOORD_1":58
					},
					"indices":59,
					"material":4
				}
			]
		},
		{
			"name":"Cube.002",
			"primitives":[
				{
					"attributes":{
						"POSITION":60,
						"NORMAL":61,
						"TEXCOORD_0":62
					},
					"indices":63,
					"material":5
				},
				{
					"attributes":{
						"POSITION":64,
						"NORMAL":65,
						"TEXCOORD_0":66
					},
					"indices":67,
					"material":6
				},
				{
					"attributes":{
						"POSITION":68,
						"NORMAL":69,
						"TEXCOORD_0":70
					},
					"indices":71,
					"material":7
				}
			]
		},
		{
			"name":"Cylinder.003",
			"primitives":[
				{
					"attributes":{
						"POSITION":72,
						"NORMAL":73,
						"TEXCOORD_0":74
					},
					"indices":75,
					"material":8
				}
			]
		},
		{
			"name":"Cylinder.004",
			"primitives":[
				{
					"attributes":{
						"POSITION":76,
						"NORMAL":77,
						"TEXCOORD_0":78
					},
					"indices":75,
					"material":9
				}
			]
		},
		{
			"name":"Torus.001",
			"primitives":[
				{
					"attributes":{
						"POSITION":79,
						"NORMAL":80,
						"TEXCOORD_0":81
					},
					"indices":82,
					"material":10
				}
			]
		}
	],
	"textures":[
		{
			"sampler":0,
			"source":0
		}
	],
	"images":[
		{
			"mimeType":"image/jpeg",
			"name":"Untitled",
			"uri":"Untitled.jpg"
		}
	],
	"accessors":[
		{
			"bufferView":0,
			"componentType":5126,
			"count":24,
			"max":[
				1,
				1,
				1
			],
			"min":[
				-1,
				-1,
				-1
			],
			"type":"VEC3"
		},
		{
			"bufferView":1,
			"componentType":5126,
			"count":24,
			"type":"VEC3"
		},
		{
			"bufferView":2,
			"componentType":5126,
			"count":24,
			"type":"VEC2"
		},
		{
			"bufferView":3,
			"componentType":5123,
			"count":36,
			"type":"SCALAR"
		},
		{
			"bufferView":4,
			"componentType":5126,
			"count":24,
			"max":[
				1,
				1,
				1
			],
			"min":[
				-1,
				-1,
				-1
			],
			"type":"VEC3"
		},
		{
			"bufferView":5,
			"componentType":5126,
			"count":24,
			"type":"VEC3"
		},
		{
			"bufferView":6,
			"componentType":5126,
			"count":24,
			"type":"VEC2"
		},
		{
			"bufferView":7,
			"componentType":5126,
			"count":24,
			"max":[
				1,
				1,
				1
			],
			"min":[
				-1,
				-1,
				-1
			],
			"type":"VEC3"
		},
		{
			"bufferView":8,
			"componentType":5126,
			"count":24,
			"type":"VEC3"
		},
		{
			"bufferView":9,
			"componentType":5126,
			"count":24,
			"type":"VEC2"
		},
		{
			"bufferView":10,
			"componentType":5126,
			"count":24,
			"max":[
				1,
				1,
				1
			],
			"min":[
				-1,
				-1,
				-1
			],
			"type":"VEC3"
		},
		{
			"bufferView":11,
			"componentType":5126,
			"count":24,
			"type":"VEC3"
		},
		{
			"bufferView":12,
			"componentType":5126,
			"count":24,
			"type":"VEC2"
		},
		{
			"bufferView":13,
			"componentType":5126,
			"count":24,
			"max":[
				1,
				1,
				1
			],
			"min":[
				-1,
				-1,
				-1
			],
			"type":"VEC3"
		},
		{
			"bufferView":14,
			"componentType":5126,
			"count":24,
			"type":"VEC3"
		},
		{
			"bufferView":15,
			"componentType":5126,
			"count":24,
			"type":"VEC2"
		},
		{
			"bufferView":16,
			"componentType":5126,
			"count":24,
			"max":[
				1,
				1,
				1
			],
			"min":[
				-1,
				-1,
				-1
			],
			"type":"VEC3"
		},
		{
			"bufferView":17,
			"componentType":5126,
			"count":24,
			"type":"VEC3"
		},
		{
			"bufferView":18,
			"componentType":5126,
			"count":24,
			"type":"VEC2"
		},
		{
			"bufferView":19,
			"componentType":5126,
			"count":24,
			"max":[
				1,
				1,
				1
			],
			"min":[
				-1,
				-1,
				-1
			],
			"type":"VEC3"
		},
		{
			"bufferView":20,
			"componentType":5126,
			"count":24,
			"type":"VEC3"
		},
		{
			"bufferView":21,
			"componentType":5126,
			"count":24,
			"type":"VEC2"
		},
		{
			"bufferView":22,
			"componentType":5126,
			"count":24,
			"max":[
				1,
				1,
				1
			],
			"min":[
				-1,
				-1,
				-1
			],
			"type":"VEC3"
		},
		{
			"bufferView":23,
			"componentType":5126,
			"count":24,
			"type":"VEC3"
		},
		{
			"bufferView":24,
			"componentType":5126,
			"count":24,
			"type":"VEC2"
		},
		{
			"bufferView":25,
			"componentType":5126,
			"count":24,
			"max":[
				1,
				1,
				1
			],
			"min":[
				-1,
				-1,
				-1
			],
			"type":"VEC3"
		},
		{
			"bufferView":26,
			"componentType":5126,
			"count":24,
			"type":"VEC3"
		},
		{
			"bufferView":27,
			"componentType":5126,
			"count":24,
			"type":"VEC2"
		},
		{
			"bufferView":28,
			"componentType":5126,
			"count":24,
			"max":[
				1,
				1,
				1
			],
			"min":[
				-1,
				-1,
				-1
			],
			"type":"VEC3"
		},
		{
			"bufferView":29,
			"componentType":5126,
			"count":24,
			"type":"VEC3"
		},
		{
			"bufferView":30,
			"componentType":5126,
			"count":24,
			"type":"VEC2"
		},
		{
			"bufferView":31,
			"componentType":5126,
			"count":24,
			"max":[
				1,
				1,
				1
			],
			"min":[
				-1,
				-1,
				-1
			],
			"type":"VEC3"
		},
		{
			"bufferView":32,
			"componentType":5126,
			"count":24,
			"type":"VEC3"
		},
		{
			"bufferView":33,
			"componentType":5126,
			"count":24,
			"type":"VEC2"
		},
		{
			"bufferView":34,
			"componentType":5126,
			"count":24,
			"max":[
				1,
				1,
				1
			],
			"min":[
				-1,
				-1,
				-1
			],
			"type":"VEC3"
		},
		{
			"bufferView":35,
			"componentType":5126,
			"count":24,
			"type":"VEC3"
		},
		{
			"bufferView":36,
			"componentType":5126,
			"count":24,
			"type":"VEC2"
		},
		{
			"bufferView":37,
			"componentType":5126,
			"count":30540,
			"max":[
				12.348729133605957,
				0,
				0.1699671745300293
			],
			"min":[
				0.019461989402770996,
				-0.10001039505004883,
				-0.6246857643127441
			],
			"type":"VEC3"
		},
		{
			"bufferView":38,
			"componentType":5126,
			"count":30540,
			"type":"VEC3"
		},
		{
			"bufferView":39,
			"componentType":5123,
			"count":83112,
			"type":"SCALAR"
		},
		{
			"bufferView":40,
			"componentType":5126,
			"count":24,
			"max":[
				1,
				1,
				1
			],
			"min":[
				-1,
				-1,
				-1
			],
			"type":"VEC3"
		},
		{
			"bufferView":41,
			"componentType":5126,
			"count":24,
			"type":"VEC3"
		},
		{
			"bufferView":42,
			"componentType":5126,
			"count":24,
			"type":"VEC2"
		},
		{
			"bufferView":43,
			"componentType":5126,
			"count":24,
			"max":[
				1,
				1,
				1
			],
			"min":[
				-1,
				-1,
				-1
			],
			"type":"VEC3"
		},
		{
			"bufferView":44,
			"componentType":5126,
			"count":24,
			"type":"VEC3"
		},
		{
			"bufferView":45,
			"componentType":5126,
			"count":24,
			"type":"VEC2"
		},
		{
			"bufferView":46,
			"componentType":5126,
			"count":24,
			"max":[
				1,
				1,
				1
			],
			"min":[
				-1,
				-1,
				-1
			],
			"type":"VEC3"
		},
		{
			"bufferView":47,
			"componentType":5126,
			"count":24,
			"type":"VEC3"
		},
		{
			"bufferView":48,
			"componentType":5126,
			"count":24,
			"type":"VEC2"
		},
		{
			"bufferView":49,
			"componentType":5126,
			"count":24,
			"max":[
				1,
				1,
				1
			],
			"min":[
				-1,
				-1,
				-1
			],
			"type":"VEC3"
		},
		{
			"bufferView":50,
			"componentType":5126,
			"count":24,
			"type":"VEC3"
		},
		{
			"bufferView":51,
			"componentType":5126,
			"count":24,
			"type":"VEC2"
		},
		{
			"bufferView":52,
			"componentType":5126,
			"count":24,
			"max":[
				1,
				1,
				1
			],
			"min":[
				-1,
				-1,
				-1
			],
			"type":"VEC3"
		},
		{
			"bufferView":53,
			"componentType":5126,
			"count":24,
			"type":"VEC3"
		},
		{
			"bufferView":54,
			"componentType":5126,
			"count":24,
			"type":"VEC2"
		},
		{
			"bufferView":55,
			"componentType":5126,
			"count":4,
			"max":[
				3.7140674591064453,
				0,
				2.089162826538086
			],
			"min":[
				-3.7140674591064453,
				0,
				-2.089162826538086
			],
			"type":"VEC3"
		},
		{
			"bufferView":56,
			"componentType":5126,
			"count":4,
			"type":"VEC3"
		},
		{
			"bufferView":57,
			"componentType":5126,
			"count":4,
			"type":"VEC2"
		},
		{
			"bufferView":58,
			"componentType":5126,
			"count":4,
			"type":"VEC2"
		},
		{
			"bufferView":59,
			"componentType":5123,
			"count":6,
			"type":"SCALAR"
		},
		{
			"bufferView":60,
			"componentType":5126,
			"count":129199,
			"max":[
				1.171388864517212,
				1,
				1
			],
			"min":[
				-1.0151946544647217,
				-1.6841790676116943,
				-1.5903725624084473
			],
			"type":"VEC3"
		},
		{
			"bufferView":61,
			"componentType":5126,
			"count":129199,
			"type":"VEC3"
		},
		{
			"bufferView":62,
			"componentType":5126,
			"count":129199,
			"type":"VEC2"
		},
		{
			"bufferView":63,
			"componentType":5125,
			"count":495372,
			"type":"SCALAR"
		},
		{
			"bufferView":64,
			"componentType":5126,
			"count":206151,
			"max":[
				0.9099853038787842,
				0.7059962749481201,
				0.35251498222351074
			],
			"min":[
				-2.544785737991333,
				-2.2900800704956055,
				-2.809499740600586
			],
			"type":"VEC3"
		},
		{
			"bufferView":65,
			"componentType":5126,
			"count":206151,
			"type":"VEC3"
		},
		{
			"bufferView":66,
			"componentType":5126,
			"count":206151,
			"type":"VEC2"
		},
		{
			"bufferView":67,
			"componentType":5125,
			"count":776382,
			"type":"SCALAR"
		},
		{
			"bufferView":68,
			"componentType":5126,
			"count":213962,
			"max":[
				2.2706754207611084,
				1.5605456829071045,
				-0.15131866931915283
			],
			"min":[
				-0.7473154067993164,
				-1.849548578262329,
				-3.4058237075805664
			],
			"type":"VEC3"
		},
		{
			"bufferView":69,
			"componentType":5126,
			"count":213962,
			"type":"VEC3"
		},
		{
			"bufferView":70,
			"componentType":5126,
			"count":213962,
			"type":"VEC2"
		},
		{
			"bufferView":71,
			"componentType":5125,
			"count":823806,
			"type":"SCALAR"
		},
		{
			"bufferView":72,
			"componentType":5126,
			"count":130,
			"max":[
				0.7863277196884155,
				1.108723759651184,
				0.786327600479126
			],
			"min":[
				-0.7863280177116394,
				-0.488697350025177,
				-0.7863279581069946
			],
			"type":"VEC3"
		},
		{
			"bufferView":73,
			"componentType":5126,
			"count":130,
			"type":"VEC3"
		},
		{
			"bufferView":74,
			"componentType":5126,
			"count":130,
			"type":"VEC2"
		},
		{
			"bufferView":75,
			"componentType":5123,
			"count":372,
			"type":"SCALAR"
		},
		{
			"bufferView":76,
			"componentType":5126,
			"count":130,
			"max":[
				1,
				1,
				1
			],
			"min":[
				-1,
				-1,
				-1
			],
			"type":"VEC3"
		},
		{
			"bufferView":77,
			"componentType":5126,
			"count":130,
			"type":"VEC3"
		},
		{
			"bufferView":78,
			"componentType":5126,
			"count":130,
			"type":"VEC2"
		},
		{
			"bufferView":79,
			"componentType":5126,
			"count":1856,
			"max":[
				0.5072935819625854,
				0.5072936415672302,
				0.848920464515686
			],
			"min":[
				-0.507293701171875,
				-0.5072936415672302,
				-0.848920464515686
			],
			"type":"VEC3"
		},
		{
			"bufferView":80,
			"componentType":5126,
			"count":1856,
			"type":"VEC3"
		},
		{
			"bufferView":81,
			"componentType":5126,
			"count":1856,
			"type":"VEC2"
		},
		{
			"bufferView":82,
			"componentType":5123,
			"count":6912,
			"type":"SCALAR"
		}
	],
	"bufferViews":[
		{
			"buffer":0,
			"byteLength":288,
			"byteOffset":0,
			"target":34962
		},
		{
			"buffer":0,
			"byteLength":288,
			"byteOffset":288,
			"target":34962
		},
		{
			"buffer":0,
			"byteLength":192,
			"byteOffset":576,
			"target":34962
		},
		{
			"buffer":0,
			"byteLength":72,
			"byteOffset":768,
			"target":34963
		},
		{
			"buffer":0,
			"byteLength":288,
			"byteOffset":840,
			"target":34962
		},
		{
			"buffer":0,
			"byteLength":288,
			"byteOffset":1128,
			"target":34962
		},
		{
			"buffer":0,
			"byteLength":192,
			"byteOffset":1416,
			"target":34962
		},
		{
			"buffer":0,
			"byteLength":288,
			"byteOffset":1608,
			"target":34962
		},
		{
			"buffer":0,
			"byteLength":288,
			"byteOffset":1896,
			"target":34962
		},
		{
			"buffer":0,
			"byteLength":192,
			"byteOffset":2184,
			"target":34962
		},
		{
			"buffer":0,
			"byteLength":288,
			"byteOffset":2376,
			"target":34962
		},
		{
			"buffer":0,
			"byteLength":288,
			"byteOffset":2664,
			"target":34962
		},
		{
			"buffer":0,
			"byteLength":192,
			"byteOffset":2952,
			"target":34962
		},
		{
			"buffer":0,
			"byteLength":288,
			"byteOffset":3144,
			"target":34962
		},
		{
			"buffer":0,
			"byteLength":288,
			"byteOffset":3432,
			"target":34962
		},
		{
			"buffer":0,
			"byteLength":192,
			"byteOffset":3720,
			"target":34962
		},
		{
			"buffer":0,
			"byteLength":288,
			"byteOffset":3912,
			"target":34962
		},
		{
			"buffer":0,
			"byteLength":288,
			"byteOffset":4200,
			"target":34962
		},
		{
			"buffer":0,
			"byteLength":192,
			"byteOffset":4488,
			"target":34962
		},
		{
			"buffer":0,
			"byteLength":288,
			"byteOffset":4680,
			"target":34962
		},
		{
			"buffer":0,
			"byteLength":288,
			"byteOffset":4968,
			"target":34962
		},
		{
			"buffer":0,
			"byteLength":192,
			"byteOffset":5256,
			"target":34962
		},
		{
			"buffer":0,
			"byteLength":288,
			"byteOffset":5448,
			"target":34962
		},
		{
			"buffer":0,
			"byteLength":288,
			"byteOffset":5736,
			"target":34962
		},
		{
			"buffer":0,
			"byteLength":192,
			"byteOffset":6024,
			"target":34962
		},
		{
			"buffer":0,
			"byteLength":288,
			"byteOffset":6216,
			"target":34962
		},
		{
			"buffer":0,
			"byteLength":288,
			"byteOffset":6504,
			"target":34962
		},
		{
			"buffer":0,
			"byteLength":192,
			"byteOffset":6792,
			"target":34962
		},
		{
			"buffer":0,
			"byteLength":288,
			"byteOffset":6984,
			"target":34962
		},
		{
			"buffer":0,
			"byteLength":288,
			"byteOffset":7272,
			"target":34962
		},
		{
			"buffer":0,
			"byteLength":192,
			"byteOffset":7560,
			"target":34962
		},
		{
			"buffer":0,
			"byteLength":288,
			"byteOffset":7752,
			"target":34962
		},
		{
			"buffer":0,
			"byteLength":288,
			"byteOffset":8040,
			"target":34962
		},
		{
			"buffer":0,
			"byteLength":192,
			"byteOffset":8328,
			"target":34962
		},
		{
			"buffer":0,
			"byteLength":288,
			"byteOffset":8520,
			"target":34962
		},
		{
			"buffer":0,
			"byteLength":288,
			"byteOffset":8808,
			"target":34962
		},
		{
			"buffer":0,
			"byteLength":192,
			"byteOffset":9096,
			"target":34962
		},
		{
			"buffer":0,
			"byteLength":366480,
			"byteOffset":9288,
			"target":34962
		},
		{
			"buffer":0,
			"byteLength":366480,
			"byteOffset":375768,
			"target":34962
		},
		{
			"buffer":0,
			"byteLength":166224,
			"byteOffset":742248,
			"target":34963
		},
		{
			"buffer":0,
			"byteLength":288,
			"byteOffset":908472,
			"target":34962
		},
		{
			"buffer":0,
			"byteLength":288,
			"byteOffset":908760,
			"target":34962
		},
		{
			"buffer":0,
			"byteLength":192,
			"byteOffset":909048,
			"target":34962
		},
		{
			"buffer":0,
			"byteLength":288,
			"byteOffset":909240,
			"target":34962
		},
		{
			"buffer":0,
			"byteLength":288,
			"byteOffset":909528,
			"target":34962
		},
		{
			"buffer":0,
			"byteLength":192,
			"byteOffset":909816,
			"target":34962
		},
		{
			"buffer":0,
			"byteLength":288,
			"byteOffset":910008,
			"target":34962
		},
		{
			"buffer":0,
			"byteLength":288,
			"byteOffset":910296,
			"target":34962
		},
		{
			"buffer":0,
			"byteLength":192,
			"byteOffset":910584,
			"target":34962
		},
		{
			"buffer":0,
			"byteLength":288,
			"byteOffset":910776,
			"target":34962
		},
		{
			"buffer":0,
			"byteLength":288,
			"byteOffset":911064,
			"target":34962
		},
		{
			"buffer":0,
			"byteLength":192,
			"byteOffset":911352,
			"target":34962
		},
		{
			"buffer":0,
			"byteLength":288,
			"byteOffset":911544,
			"target":34962
		},
		{
			"buffer":0,
			"byteLength":288,
			"byteOffset":911832,
			"target":34962
		},
		{
			"buffer":0,
			"byteLength":192,
			"byteOffset":912120,
			"target":34962
		},
		{
			"buffer":0,
			"byteLength":48,
			"byteOffset":912312,
			"target":34962
		},
		{
			"buffer":0,
			"byteLength":48,
			"byteOffset":912360,
			"target":34962
		},
		{
			"buffer":0,
			"byteLength":32,
			"byteOffset":912408,
			"target":34962
		},
		{
			"buffer":0,
			"byteLength":32,
			"byteOffset":912440,
			"target":34962
		},
		{
			"buffer":0,
			"byteLength":12,
			"byteOffset":912472,
			"target":34963
		},
		{
			"buffer":0,
			"byteLength":1550388,
			"byteOffset":912484,
			"target":34962
		},
		{
			"buffer":0,
			"byteLength":1550388,
			"byteOffset":2462872,
			"target":34962
		},
		{
			"buffer":0,
			"byteLength":1033592,
			"byteOffset":4013260,
			"target":34962
		},
		{
			"buffer":0,
			"byteLength":1981488,
			"byteOffset":5046852,
			"target":34963
		},
		{
			"buffer":0,
			"byteLength":2473812,
			"byteOffset":7028340,
			"target":34962
		},
		{
			"buffer":0,
			"byteLength":2473812,
			"byteOffset":9502152,
			"target":34962
		},
		{
			"buffer":0,
			"byteLength":1649208,
			"byteOffset":11975964,
			"target":34962
		},
		{
			"buffer":0,
			"byteLength":3105528,
			"byteOffset":13625172,
			"target":34963
		},
		{
			"buffer":0,
			"byteLength":2567544,
			"byteOffset":16730700,
			"target":34962
		},
		{
			"buffer":0,
			"byteLength":2567544,
			"byteOffset":19298244,
			"target":34962
		},
		{
			"buffer":0,
			"byteLength":1711696,
			"byteOffset":21865788,
			"target":34962
		},
		{
			"buffer":0,
			"byteLength":3295224,
			"byteOffset":23577484,
			"target":34963
		},
		{
			"buffer":0,
			"byteLength":1560,
			"byteOffset":26872708,
			"target":34962
		},
		{
			"buffer":0,
			"byteLength":1560,
			"byteOffset":26874268,
			"target":34962
		},
		{
			"buffer":0,
			"byteLength":1040,
			"byteOffset":26875828,
			"target":34962
		},
		{
			"buffer":0,
			"byteLength":744,
			"byteOffset":26876868,
			"target":34963
		},
		{
			"buffer":0,
			"byteLength":1560,
			"byteOffset":26877612,
			"target":34962
		},
		{
			"buffer":0,
			"byteLength":1560,
			"byteOffset":26879172,
			"target":34962
		},
		{
			"buffer":0,
			"byteLength":1040,
			"byteOffset":26880732,
			"target":34962
		},
		{
			"buffer":0,
			"byteLength":22272,
			"byteOffset":26881772,
			"target":34962
		},
		{
			"buffer":0,
			"byteLength":22272,
			"byteOffset":26904044,
			"target":34962
		},
		{
			"buffer":0,
			"byteLength":14848,
			"byteOffset":26926316,
			"target":34962
		},
		{
			"buffer":0,
			"byteLength":13824,
			"byteOffset":26941164,
			"target":34963
		}
	],
	"samplers":[
		{
			"magFilter":9729,
			"minFilter":9987
		}
	],
	"buffers":[
		{
			"byteLength":26954988,
			"uri":"pixelMixeer.bin"
		}
	]
}
